<?xml version="1.0" encoding="UTF-8"?>
<svg version="1.1" xmlns="http://www.w3.org/2000/svg" width="1280" height="185">
<path d="M0 0 C20.295 -0.12375 20.295 -0.12375 41 -0.25 C45.23972656 -0.28641602 49.47945312 -0.32283203 53.84765625 -0.36035156 C59.10742188 -0.37841797 59.10742188 -0.37841797 61.58569336 -0.3817749 C63.28169988 -0.38783505 64.97769144 -0.40172795 66.67358398 -0.42230225 C88.7644552 -0.67642601 106.77880963 4.29577375 123.8671875 18.86328125 C126 21 126 21 126 23 C126.66 23 127.32 23 128 23 C142.57773894 40.29607417 149.49278786 59.99080886 148.21142578 82.65576172 C146.8265763 98.0106401 140.12052331 112.42066252 130 124 C129.34 124 128.68 124 128 124 C128 124.66 128 125.32 128 126 C126.20540651 127.62558212 124.42174724 129.09898567 122.5 130.5625 C121.92411133 131.00215088 121.34822266 131.44180176 120.75488281 131.89477539 C116.26577434 135.23290706 111.61223112 138.1750264 106.75 140.9375 C106.11384766 141.30238525 105.47769531 141.66727051 104.82226562 142.04321289 C96.96283719 146.37175474 89.6932315 148.46008877 80.71655273 148.34057617 C79.37678045 148.34111858 79.37678045 148.34111858 78.00994205 148.34167194 C75.15092219 148.33945284 72.29250708 148.31670043 69.43359375 148.29296875 C67.65564252 148.28855167 65.87768737 148.28549498 64.09973145 148.28381348 C57.54559437 148.26815701 50.99154109 148.22627319 44.4375 148.1875 C29.773125 148.125625 15.10875 148.06375 0 148 C0 99.16 0 50.32 0 0 Z " fill="#656565" transform="translate(42,22)"/>
<path d="M0 0 C0.87454834 0.00523682 1.74909668 0.01047363 2.65014648 0.01586914 C3.59438477 0.0190918 4.53862305 0.02231445 5.51147461 0.02563477 C6.50469727 0.03401367 7.49791992 0.04239258 8.52124023 0.05102539 C9.51833008 0.05553711 10.51541992 0.06004883 11.54272461 0.06469727 C14.01478872 0.07652532 16.48673541 0.0930069 18.95874023 0.11352539 C20.23827929 3.95645076 19.99140291 7.73502738 19.83764648 11.72290039 C19.81403549 12.44971008 19.7904245 13.17651978 19.76609802 13.925354 C19.68975151 16.23829097 19.60560343 18.55086832 19.52124023 20.86352539 C19.46799044 22.43512259 19.41525025 24.00673715 19.36303711 25.57836914 C19.23417591 29.42364735 19.09831897 33.2686219 18.95874023 37.11352539 C19.63420898 36.76418945 20.30967773 36.41485352 21.00561523 36.05493164 C22.34366211 35.37237305 22.34366211 35.37237305 23.70874023 34.67602539 C24.59045898 34.22356445 25.47217773 33.77110352 26.38061523 33.30493164 C34.20489742 29.68916487 42.24035175 30.66015928 50.31811523 33.07446289 C58.90127591 36.45186043 65.79642322 43.99700722 69.95874023 52.11352539 C70.67017111 54.0980431 71.3486536 56.09554652 71.95874023 58.11352539 C72.33385742 57.38907227 72.70897461 56.66461914 73.09545898 55.91821289 C75.96003734 50.50654093 78.67295231 45.51836298 82.95874023 41.11352539 C83.61874023 41.11352539 84.27874023 41.11352539 84.95874023 41.11352539 C84.95874023 40.45352539 84.95874023 39.79352539 84.95874023 39.11352539 C94.94258988 32.8767008 105.36140427 29.31258718 117.09155273 31.76977539 C128.64362022 34.87891652 136.58216296 40.98703682 142.95874023 51.11352539 C144.19800096 53.76845407 145.09061084 56.30487146 145.95874023 59.11352539 C146.13147461 58.51926758 146.30420898 57.92500977 146.48217773 57.31274414 C149.73102484 47.73013548 156.0446749 39.79374486 165.08374023 35.05102539 C176.42347064 30.16839576 186.33889117 29.97615489 197.95874023 34.11352539 C202.38889594 36.13707396 206.35480566 38.83722123 209.95874023 42.11352539 C209.95874023 42.77352539 209.95874023 43.43352539 209.95874023 44.11352539 C210.61874023 44.11352539 211.27874023 44.11352539 211.95874023 44.11352539 C212.92336998 45.8183113 213.88015077 47.52753951 214.83374023 49.23852539 C215.36741211 50.18985352 215.90108398 51.14118164 216.45092773 52.12133789 C221.24964544 61.64418183 221.71006597 73.67341831 218.64624023 83.92602539 C214.7299877 93.0222857 206.72564803 100.95508729 197.93139648 105.34399414 C189.38365788 108.67845851 176.85605346 108.71664932 168.27124023 105.42602539 C164.15176655 103.41983457 160.48968057 101.03038915 156.95874023 98.11352539 C156.95874023 97.45352539 156.95874023 96.79352539 156.95874023 96.11352539 C156.36577148 95.8930957 155.77280273 95.67266602 155.16186523 95.44555664 C152.25299071 93.68682222 151.30599911 91.7817686 149.70874023 88.80102539 C149.18795898 87.85614258 148.66717773 86.91125977 148.13061523 85.93774414 C146.93709756 83.06136653 146.7123573 81.18771248 146.95874023 78.11352539 C146.29874023 78.11352539 145.63874023 78.11352539 144.95874023 78.11352539 C144.93811523 79.04165039 144.91749023 79.96977539 144.89624023 80.92602539 C144.11652304 86.66757925 140.46243568 91.63882889 136.95874023 96.11352539 C136.29874023 96.11352539 135.63874023 96.11352539 134.95874023 96.11352539 C134.95874023 96.77352539 134.95874023 97.43352539 134.95874023 98.11352539 C133.27124023 99.51586914 133.27124023 99.51586914 130.95874023 101.05102539 C130.21624023 101.55504883 129.47374023 102.05907227 128.70874023 102.57836914 C122.22295608 106.19898444 116.50438075 107.65355995 109.08374023 107.55102539 C107.89748047 107.53640259 107.89748047 107.53640259 106.68725586 107.52148438 C94.96560535 107.16631933 87.98639228 102.54113164 79.95874023 94.11352539 C76.54485379 90.07893232 74.34010916 85.87626324 71.95874023 81.11352539 C69.64874023 85.73352539 67.33874023 90.35352539 64.95874023 95.11352539 C64.29874023 95.11352539 63.63874023 95.11352539 62.95874023 95.11352539 C62.59522461 96.0068457 62.59522461 96.0068457 62.22436523 96.91821289 C60.71563873 99.53520146 59.23135345 100.59968483 56.70874023 102.23852539 C55.96108398 102.73610352 55.21342773 103.23368164 54.44311523 103.74633789 C48.88036815 106.80759808 43.87040889 107.49960166 37.64624023 107.48852539 C36.52390991 107.49045898 36.52390991 107.49045898 35.37890625 107.49243164 C29.40898537 107.37833607 25.1692162 106.14507504 19.95874023 103.11352539 C19.62874023 104.10352539 19.29874023 105.09352539 18.95874023 106.11352539 C11.69874023 106.11352539 4.43874023 106.11352539 -3.04125977 106.11352539 C-3.06380821 92.44049683 -3.08217335 78.76748051 -3.09307194 65.0944376 C-3.09830141 58.74621963 -3.10540021 52.39801499 -3.11669922 46.04980469 C-3.12752583 39.92903957 -3.13353612 33.8082873 -3.13613701 27.68751335 C-3.13799167 25.34661596 -3.14161305 23.0057193 -3.14698982 20.66482735 C-3.15419725 17.39844337 -3.15525083 14.13211324 -3.15478516 10.86572266 C-3.15838043 9.88749039 -3.16197571 8.90925812 -3.16567993 7.90138245 C-3.16430527 7.01652161 -3.1629306 6.13166077 -3.16151428 5.21998596 C-3.16243608 4.44660165 -3.16335787 3.67321733 -3.16430759 2.87639713 C-2.98393866 0.29230197 -2.5769931 0.14332039 0 0 Z M22.95874023 56.11352539 C19.71548421 61.03432763 18.50729528 66.36088924 19.20874023 72.19165039 C20.45216357 78.00909529 22.67344644 82.55537053 27.70874023 85.98852539 C32.30368203 87.57908216 36.28453159 88.02481759 40.88452148 86.45727539 C44.60588084 84.60854869 47.39534915 82.22736501 49.30249023 78.43774414 C51.0856685 72.12232112 51.11681691 64.88040746 48.58374023 58.82836914 C46.40248535 55.18420533 44.85226773 53.88952039 40.95874023 52.11352539 C34.11786335 51.19390134 28.14775094 51.05756624 22.95874023 56.11352539 Z M96.95874023 57.11352539 C93.70271432 62.1659794 92.23262638 67.52496272 93.43139648 73.44946289 C95.0875234 78.89748697 97.10889888 83.45111794 102.20874023 86.42602539 C107.29541629 87.6976944 111.34178539 87.70433581 116.20874023 85.92602539 C121.19510883 82.63955518 123.59764564 78.89817741 124.95874023 73.11352539 C125.46078811 66.88813167 124.41150578 62.83664499 121.95874023 57.11352539 C121.29874023 57.11352539 120.63874023 57.11352539 119.95874023 57.11352539 C119.95874023 56.45352539 119.95874023 55.79352539 119.95874023 55.11352539 C112.60187795 49.6060028 102.87433448 50.13615782 96.95874023 57.11352539 Z M169.95874023 58.11352539 C166.67145831 63.04444828 166.44889564 68.85451875 167.35717773 74.66040039 C168.93806449 80.20280338 171.18507759 82.93108363 175.95874023 86.11352539 C180.98732222 87.78971939 185.29904434 87.71995274 190.20874023 85.92602539 C194.19435177 83.29914506 196.44854554 80.64410947 197.95874023 76.11352539 C198.5903153 68.45179506 198.91668708 62.2457228 193.95874023 56.11352539 C190.34784796 52.6787742 187.37868606 51.78795698 182.52124023 51.48852539 C176.72571706 51.68592059 173.61521494 53.73215191 169.95874023 58.11352539 Z " fill="#010101" transform="translate(510.041259765625,36.886474609375)"/>
<path d="M0 0 C6.93 0 13.86 0 21 0 C21.33 17.49 21.66 34.98 22 53 C25.465 49.04 25.465 49.04 29 45 C29.66 45 30.32 45 31 45 C31 44.34 31 43.68 31 43 C31.66 43 32.32 43 33 43 C33.2475 42.443125 33.495 41.88625 33.75 41.3125 C36.0614655 37.03628883 38.41516882 33.80332626 43 32 C45.53369141 31.75708008 45.53369141 31.75708008 48.3515625 31.76953125 C49.87523437 31.77243164 49.87523437 31.77243164 51.4296875 31.77539062 C52.48414063 31.78763672 53.53859375 31.79988281 54.625 31.8125 C55.6871875 31.81314453 56.749375 31.81378906 57.84375 31.81445312 C65.71908181 31.8595409 65.71908181 31.8595409 68 33 C68 33.99 68 34.98 68 36 C67.34 36 66.68 36 66 36 C66 36.66 66 37.32 66 38 C64.37151422 39.72718189 62.71742999 41.3647644 61 43 C56.66921994 47.21762429 52.5730896 51.54895834 48.6484375 56.1484375 C47.17411077 57.80443482 45.64509093 59.26850927 44 60.75 C41.7805958 62.71536169 41.7805958 62.71536169 42.09375 64.734375 C43.40124037 68.00310093 45.42456418 70.6868116 47.5 73.5 C47.9434375 74.11222412 48.386875 74.72444824 48.84375 75.35522461 C51.05845011 78.40083049 53.30820671 81.41739155 55.59375 84.41015625 C56.3878125 85.45042969 57.181875 86.49070312 58 87.5625 C58.721875 88.49191406 59.44375 89.42132813 60.1875 90.37890625 C61.9116206 92.87219272 63.00941118 95.14689781 64 98 C64.66 98 65.32 98 66 98 C66 98.99 66 99.98 66 101 C66.99 101.33 67.98 101.66 69 102 C69 103.32 69 104.64 69 106 C64.95957327 106.26233625 60.92133519 106.42150491 56.875 106.5625 C55.73289062 106.63791016 54.59078125 106.71332031 53.4140625 106.79101562 C45.09575715 107.00864571 45.09575715 107.00864571 41.85644531 104.02685547 C38 98.36914866 38 98.36914866 38 95 C37.34 95 36.68 95 36 95 C34.37322909 92.86229382 32.86020356 90.7324466 31.375 88.5 C30.95476562 87.87996094 30.53453125 87.25992188 30.1015625 86.62109375 C29.06162833 85.08482736 28.03002944 83.54292476 27 82 C24.3094472 83.22007944 24.3094472 83.22007944 22 85 C21.84313751 86.55948542 21.74923361 88.12542668 21.68359375 89.69140625 C21.64548584 90.54162354 21.60737793 91.39184082 21.56811523 92.26782227 C21.52501221 93.35506592 21.48190918 94.44230957 21.4375 95.5625 C21.293125 99.006875 21.14875 102.45125 21 106 C13.74 106 6.48 106 -1 106 C-1.33 88.51 -1.66 71.02 -2 53 C-12.89247791 51.98595975 -12.89247791 51.98595975 -17.1875 54.875 C-19.7677382 57.90010685 -20.12926999 59.54401912 -20.18945312 63.43383789 C-20.20617065 64.35141373 -20.22288818 65.26898956 -20.2401123 66.21437073 C-20.25368774 67.20710495 -20.26726318 68.19983917 -20.28125 69.22265625 C-20.29965942 70.23847275 -20.31806885 71.25428925 -20.33703613 72.30088806 C-20.41592408 76.66085003 -20.48360278 81.02097012 -20.55224609 85.38110352 C-20.60383383 88.55753559 -20.66113183 91.7338288 -20.71875 94.91015625 C-20.73232544 95.9049147 -20.74590088 96.89967316 -20.7598877 97.92457581 C-20.77660522 98.83899948 -20.79332275 99.75342316 -20.81054688 100.69555664 C-20.82933899 101.9089547 -20.82933899 101.9089547 -20.84851074 103.14686584 C-21 105 -21 105 -22 106 C-23.63472882 106.08700342 -25.27314055 106.10701063 -26.91015625 106.09765625 C-27.89951172 106.09443359 -28.88886719 106.09121094 -29.90820312 106.08789062 C-30.94912109 106.07951172 -31.99003906 106.07113281 -33.0625 106.0625 C-34.10728516 106.05798828 -35.15207031 106.05347656 -36.22851562 106.04882812 C-38.8190666 106.03699913 -41.40950559 106.02051689 -44 106 C-44 105.34 -44 104.68 -44 104 C-44.55268555 104.32597168 -45.10537109 104.65194336 -45.67480469 104.98779297 C-48.378593 106.16480959 -50.26349406 106.22949426 -53.203125 106.1953125 C-54.67265625 106.18564453 -54.67265625 106.18564453 -56.171875 106.17578125 C-57.69554687 106.15064453 -57.69554687 106.15064453 -59.25 106.125 C-60.28125 106.11597656 -61.3125 106.10695313 -62.375 106.09765625 C-64.91690287 106.07412011 -67.4583328 106.04124023 -70 106 C-70.33 105.01 -70.66 104.02 -71 103 C-71.59683594 103.28875 -72.19367187 103.5775 -72.80859375 103.875 C-81.85036593 107.74428735 -92.07977585 108.78780827 -101.69140625 106.3046875 C-107.10673356 103.85905581 -110.35145874 99.82607073 -113.3125 94.75 C-115.20702277 87.17190893 -114.36349076 81.0056284 -110.53515625 74.19140625 C-102.28629508 62.41631435 -84.006019 61.37758819 -71 59 C-71.495 55.535 -71.495 55.535 -72 52 C-76.05346212 50.64884596 -79.76640906 50.31548266 -84 51 C-86.98119541 53.22976163 -86.98119541 53.22976163 -89 56 C-89.66 56.66 -90.32 57.32 -91 58 C-93.86328125 57.79296875 -93.86328125 57.79296875 -97.3125 57.1875 C-99.00826172 56.89939453 -99.00826172 56.89939453 -100.73828125 56.60546875 C-103.49749577 56.09327923 -106.25060448 55.56225912 -109 55 C-109.71520146 50.42271066 -108.0123025 47.67166759 -105.5546875 43.9921875 C-99.83132462 36.65823004 -92.17423002 32.47180161 -83 31 C-74.06596985 30.13781406 -65.11624284 31.51966894 -57.625 36.6875 C-49.35298754 43.56954315 -47.40241748 51.98569651 -46.453125 62.28515625 C-45.8390303 69.91931072 -45.92502158 77.53702351 -46 85.1875 C-46.02654632 87.97265153 -46.04647665 90.75773929 -46.0625 93.54296875 C-46.07410156 94.76008545 -46.08570313 95.97720215 -46.09765625 97.23120117 C-46.31820086 99.90904682 -46.31820086 99.90904682 -45 101 C-44.67 78.56 -44.34 56.12 -44 33 C-40.6457361 32.16143402 -38.77205901 31.91926668 -35.453125 32.12109375 C-34.60878906 32.16943359 -33.76445313 32.21777344 -32.89453125 32.26757812 C-32.02183594 32.32365234 -31.14914062 32.37972656 -30.25 32.4375 C-29.36183594 32.48970703 -28.47367188 32.54191406 -27.55859375 32.59570312 C-25.37200804 32.72501733 -23.18592106 32.85996642 -21 33 C-20.67 33.66 -20.34 34.32 -20 35 C-19.29875 34.71125 -18.5975 34.4225 -17.875 34.125 C-16.92625 33.75375 -15.9775 33.3825 -15 33 C-14.071875 32.62875 -13.14375 32.2575 -12.1875 31.875 C-8.27477021 30.80091731 -5.04683411 30.860454 -1 31 C-1.00523682 30.09644775 -1.01047363 29.19289551 -1.01586914 28.26196289 C-1.03287686 24.92048511 -1.04543333 21.57905308 -1.05493164 18.23754883 C-1.05997101 16.78929927 -1.06680253 15.34105483 -1.07543945 13.89282227 C-1.08752247 11.81525412 -1.09323211 9.73775303 -1.09765625 7.66015625 C-1.10289307 6.40855713 -1.10812988 5.15695801 -1.11352539 3.86743164 C-1 1 -1 1 0 0 Z M-78.8125 76.8125 C-79.90014648 77.0609668 -79.90014648 77.0609668 -81.00976562 77.31445312 C-84.89121594 78.25551839 -88.12722039 79.04556516 -91 82 C-91.50010524 85.04230823 -91.50010524 85.04230823 -91 88 C-89.02630257 90.40432559 -89.02630257 90.40432559 -85.25 90.3125 C-79.94893844 90.15884604 -76.49713898 88.45667577 -72.6875 84.75 C-70.67454519 81.46962919 -70.29852335 78.80617265 -70 75 C-72.90824791 75 -75.97826158 76.13059662 -78.8125 76.8125 Z " fill="#010101" transform="translate(1054,37)"/>
<path d="M0 0 C9.81282076 8.34739006 15.57336435 26.64431627 17 39 C18.70661159 60.39901305 13.42468967 77.60333278 0.734375 95.015625 C-0.12414062 95.99789062 -0.12414062 95.99789062 -1 97 C-1.66 97 -2.32 97 -3 97 C-3 97.66 -3 98.32 -3 99 C-4.79459349 100.62558212 -6.57825276 102.09898567 -8.5 103.5625 C-9.07588867 104.00215088 -9.65177734 104.44180176 -10.24511719 104.89477539 C-14.73422566 108.23290706 -19.38776888 111.1750264 -24.25 113.9375 C-24.88615234 114.30238525 -25.52230469 114.66727051 -26.17773438 115.04321289 C-35.01634291 119.91103339 -42.74373402 121.44189755 -52.81640625 121.29296875 C-53.91347397 121.28872391 -55.01054169 121.28447906 -56.14085388 121.28010559 C-59.61499478 121.26342927 -63.08853699 121.22579717 -66.5625 121.1875 C-68.93033011 121.17243891 -71.2981694 121.15875301 -73.66601562 121.14648438 C-79.44421169 121.11356202 -85.22206305 121.06347378 -91 121 C-91.09904974 115.53740707 -91.17155375 110.07533951 -91.21972656 104.61206055 C-91.23981305 102.75454602 -91.26708778 100.89709449 -91.30175781 99.03979492 C-91.35040737 96.36621537 -91.37299809 93.69347344 -91.390625 91.01953125 C-91.42159271 89.7786248 -91.42159271 89.7786248 -91.45318604 88.51264954 C-91.45460815 84.8391183 -91.34507004 82.59447764 -89.47558594 79.3737793 C-87.46181983 77.44282783 -85.41684126 75.62500504 -83.30145264 73.80964661 C-79.24474797 70.26821637 -75.45355208 66.5311461 -71.70117188 62.671875 C-70.29213316 61.23321883 -68.88298948 59.79466546 -67.47375488 58.35620117 C-66.73984024 57.60519135 -66.0059256 56.85418152 -65.24977112 56.08041382 C-61.32843193 52.07416287 -57.38741178 48.08732868 -53.44921875 44.09765625 C-48.45311642 39.03540836 -43.46347573 33.9673465 -38.49853516 28.87451172 C-34.46935906 24.74259326 -30.41865542 20.63292873 -26.35243225 16.53747559 C-24.81018401 14.97609637 -23.2760187 13.40668999 -21.75022888 11.82922363 C-19.6201373 9.62920122 -17.46366428 7.45873356 -15.29882812 5.29296875 C-14.36497032 4.30821815 -14.36497032 4.30821815 -13.4122467 3.30357361 C-8.79001469 -1.23403571 -6.28198977 -1.71575632 0 0 Z " fill="#000000" transform="translate(173,49)"/>
<path d="M0 0 C0 6.6 0 13.2 0 20 C4.84649196 19.96049276 4.84649196 19.96049276 9.69287109 19.90991211 C14.77777778 19.88888889 14.77777778 19.88888889 17 21 C17 27.6 17 34.2 17 41 C13.93466836 42.53266582 10.73245728 42.10276471 7.375 42.0625 C6.66859375 42.05798828 5.9621875 42.05347656 5.234375 42.04882812 C3.48954725 42.03703875 1.744763 42.01910324 0 42 C0.11837128 45.93289545 0.24262793 49.86555666 0.37231445 53.7980957 C0.43687006 55.79303319 0.4967783 57.78811929 0.55664062 59.78320312 C0.59853516 61.03681641 0.64042969 62.29042969 0.68359375 63.58203125 C0.72025146 64.73936768 0.75690918 65.8967041 0.79467773 67.08911133 C0.88328509 70.0643446 0.88328509 70.0643446 2 73 C7.11791642 73.10662326 11.92928099 72.71167986 17 72 C17.84442881 73.89091736 18.67511587 75.78797515 19.5 77.6875 C20.19609375 79.27111328 20.19609375 79.27111328 20.90625 80.88671875 C21.97153684 83.91898166 22.53691146 85.83818809 22 89 C20.42578125 90.546875 20.42578125 90.546875 18.3125 91.75 C17.62800781 92.15734375 16.94351562 92.5646875 16.23828125 92.984375 C9.34492438 96.11225072 0.03788159 96.10693938 -7.2578125 94.50390625 C-13.79597722 91.90916375 -18.17692448 87.54788219 -21.15942383 81.33911133 C-22.67706684 77.11589387 -22.68199937 72.88668386 -22.75 68.4375 C-22.77892334 67.4789209 -22.80784668 66.5203418 -22.83764648 65.53271484 C-23.0534035 57.69070159 -23.10996464 49.84414445 -23 42 C-25.97 42 -28.94 42 -32 42 C-31.68546875 42.70382813 -31.3709375 43.40765625 -31.046875 44.1328125 C-29.95218812 47.13094746 -29.53028413 49.70119445 -29.25 52.875 C-29.15203125 53.86242187 -29.0540625 54.84984375 -28.953125 55.8671875 C-29 59 -29 59 -31 66 C-45.85 66.33 -60.7 66.66 -76 67 C-71.88415114 72.3912824 -71.88415114 72.3912824 -66 74 C-61.16316309 74.06946983 -57.88516774 73.59011183 -53.8125 70.875 C-51 69 -51 69 -48.22265625 69.19140625 C-44.70137758 70.07492708 -41.83998865 71.38356148 -38.625 73.0625 C-37.56539062 73.61035156 -36.50578125 74.15820312 -35.4140625 74.72265625 C-34.61742187 75.14417969 -33.82078125 75.56570312 -33 76 C-33.875 80.75 -33.875 80.75 -35 83 C-35.66 83 -36.32 83 -37 83 C-37.226875 83.5775 -37.45375 84.155 -37.6875 84.75 C-40.59505548 89.73438083 -45.53924798 92.24946101 -50.79296875 94.234375 C-62.38507725 97.00179676 -73.99294775 95.88516906 -84.1640625 89.6796875 C-89.18344929 86.23943363 -92.83052508 82.17618389 -96 77 C-96.41507813 76.3296875 -96.83015625 75.659375 -97.2578125 74.96875 C-101.78091059 65.98581393 -102.01200036 52.55321707 -98.87109375 43.0390625 C-97.71087049 40.25584887 -96.49050674 37.61903327 -95 35 C-94.34 35 -93.68 35 -93 35 C-92.773125 34.443125 -92.54625 33.88625 -92.3125 33.3125 C-88.52642175 26.64179071 -81.86641978 22.62773351 -74.734375 20.2421875 C-65.29549335 17.89896863 -55.81845914 18.26130707 -47.140625 23.01953125 C-45.72188047 23.95716687 -44.35648919 24.97436183 -43 26 C-42.01 26.66 -41.02 27.32 -40 28 C-40 28.66 -40 29.32 -40 30 C-39.34 30 -38.68 30 -38 30 C-36.7109375 31.75 -36.7109375 31.75 -35.375 34 C-34.92898438 34.7425 -34.48296875 35.485 -34.0234375 36.25 C-33.51683594 37.11625 -33.51683594 37.11625 -33 38 C-32.93941406 36.78441406 -32.87882812 35.56882813 -32.81640625 34.31640625 C-32.73201668 32.73175772 -32.6473679 31.14712298 -32.5625 29.5625 C-32.52318359 28.76005859 -32.48386719 27.95761719 -32.44335938 27.13085938 C-32.11328125 21.11328125 -32.11328125 21.11328125 -31 20 C-29.48071962 19.92820036 -27.95832518 19.91607993 -26.4375 19.9375 C-25.61121094 19.94652344 -24.78492188 19.95554687 -23.93359375 19.96484375 C-22.97646484 19.98224609 -22.97646484 19.98224609 -22 20 C-22.08378906 19.01257813 -22.16757813 18.02515625 -22.25390625 17.0078125 C-22.40666016 15.08582031 -22.40666016 15.08582031 -22.5625 13.125 C-22.71912109 11.21074219 -22.71912109 11.21074219 -22.87890625 9.2578125 C-23 6 -23 6 -22 4 C-19.24543349 3.19018109 -16.54676355 2.49907121 -13.75 1.875 C-12.98558594 1.69324219 -12.22117187 1.51148438 -11.43359375 1.32421875 C-7.39417708 0.39633893 -4.23720175 0 0 0 Z M-75.8125 45.0625 C-77.17418735 46.90545752 -77.17418735 46.90545752 -77 49 C-68.75 49 -60.5 49 -52 49 C-52.33 47.35 -52.66 45.7 -53 44 C-53.66 44 -54.32 44 -55 44 C-55 43.34 -55 42.68 -55 42 C-61.76641535 37.48905643 -70.55946929 39.08491333 -75.8125 45.0625 Z " fill="#010101" transform="translate(1220,49)"/>
<path d="M0 0 C3.0625 2.1875 3.0625 2.1875 5 4 C8.11733407 2.83099972 11.05172018 1.47306241 14 -0.0625 C20.91548442 -3.53963142 27.49774958 -3.81033015 35 -1.875 C44.0063201 1.11346076 47.64626715 6.40610684 51.8359375 14.70703125 C54.44073847 22.07564607 54.14021195 29.98976646 54.09765625 37.72265625 C54.0962413 38.70874374 54.09482635 39.69483124 54.09336853 40.71080017 C54.0878177 43.82806568 54.0752746 46.94525658 54.0625 50.0625 C54.05747864 52.18945208 54.05291685 54.3164053 54.04882812 56.44335938 C54.03871975 61.62895739 54.01913507 66.81439621 54 72 C46.74 72 39.48 72 32 72 C31.96261719 68.74898438 31.92523437 65.49796875 31.88671875 62.1484375 C31.84047399 58.99098072 31.78925096 55.8336411 31.73754883 52.67626953 C31.7043469 50.48623812 31.6763003 48.29612211 31.65356445 46.10595703 C31.61993191 42.9530847 31.56761052 39.80098427 31.51171875 36.6484375 C31.50532883 35.67321136 31.4989389 34.69798523 31.49235535 33.69320679 C31.37898776 28.42119602 31.02518759 24.52393825 28 20 C25.04260472 18.68197116 22.20202821 18.63521198 19 19 C16.44848032 20.84985177 15.39023285 22.2195343 14 25 C13.88715607 26.47498426 13.83343173 27.95472038 13.81054688 29.43383789 C13.79382935 30.35141373 13.77711182 31.26898956 13.7598877 32.21437073 C13.74631226 33.20710495 13.73273682 34.19983917 13.71875 35.22265625 C13.70034058 36.23847275 13.68193115 37.25428925 13.66296387 38.30088806 C13.58407592 42.66085003 13.51639722 47.02097012 13.44775391 51.38110352 C13.39616617 54.55753559 13.33886817 57.7338288 13.28125 60.91015625 C13.26767456 61.9049147 13.25409912 62.89967316 13.2401123 63.92457581 C13.22339478 64.83899948 13.20667725 65.75342316 13.18945312 66.69555664 C13.17066101 67.9089547 13.17066101 67.9089547 13.15148926 69.14686584 C13 71 13 71 12 72 C10.45044441 72.09899523 8.89646327 72.13079524 7.34375 72.1328125 C5.93416016 72.13474609 5.93416016 72.13474609 4.49609375 72.13671875 C3.01302734 72.13091797 3.01302734 72.13091797 1.5 72.125 C0.51128906 72.12886719 -0.47742188 72.13273437 -1.49609375 72.13671875 C-2.43582031 72.13542969 -3.37554688 72.13414062 -4.34375 72.1328125 C-5.21193359 72.13168457 -6.08011719 72.13055664 -6.97460938 72.12939453 C-9 72 -9 72 -10 71 C-10.06401448 68.22081634 -10.066104 65.46581263 -10.02734375 62.6875 C-10.01468158 60.95442919 -10.00232183 59.22135616 -9.99023438 57.48828125 C-9.96555791 54.75432394 -9.93775249 52.02048262 -9.90405273 49.28662109 C-9.873555 46.6494072 -9.85597267 44.01233579 -9.83984375 41.375 C-9.82638412 40.57151123 -9.8129245 39.76802246 -9.79905701 38.94018555 C-9.76988099 32.23152737 -10.21044157 25.68433765 -14 20 C-19.27603097 18.77337783 -19.27603097 18.77337783 -24.375 19.9375 C-28.68530958 25.40827754 -28.32644939 33.31382048 -28.4140625 39.96875 C-28.43342865 40.88966431 -28.4527948 41.81057861 -28.4727478 42.75939941 C-28.53206499 45.67284159 -28.57873588 48.58632431 -28.625 51.5 C-28.66322391 53.48699548 -28.70227815 55.47397516 -28.7421875 57.4609375 C-28.83927466 62.30720498 -28.91922207 67.15332405 -29 72 C-36.26 72 -43.52 72 -51 72 C-51 47.91 -51 23.82 -51 -1 C-48.27023085 -1.90992305 -46.64911026 -2.12844593 -43.83984375 -2.1328125 C-42.6497168 -2.13474609 -42.6497168 -2.13474609 -41.43554688 -2.13671875 C-40.19901367 -2.13091797 -40.19901367 -2.13091797 -38.9375 -2.125 C-38.10927734 -2.12886719 -37.28105469 -2.13273437 -36.42773438 -2.13671875 C-35.23954102 -2.13478516 -35.23954102 -2.13478516 -34.02734375 -2.1328125 C-32.94054321 -2.13112061 -32.94054321 -2.13112061 -31.83178711 -2.12939453 C-30 -2 -30 -2 -28 -1 C-28 -0.34 -28 0.32 -28 1 C-27.29875 0.71125 -26.5975 0.4225 -25.875 0.125 C-16.45531469 -3.56096382 -9.41334422 -4.27716591 0 0 Z " fill="#010101" transform="translate(885,71)"/>
<path d="M0 0 C0.86784622 -0.0066568 1.73569244 -0.0133136 2.62983704 -0.02017212 C4.47496424 -0.03030842 6.32012818 -0.03498884 8.1652832 -0.03466797 C10.93311137 -0.03897662 13.69925797 -0.07510146 16.46679688 -0.11328125 C38.0177039 -0.25170937 55.57252943 5.0519317 72.16796875 19.19921875 C74.30078125 21.3359375 74.30078125 21.3359375 74.30078125 23.3359375 C74.96078125 23.3359375 75.62078125 23.3359375 76.30078125 23.3359375 C77.29078125 25.3159375 77.29078125 25.3159375 78.30078125 27.3359375 C77.30730179 27.19015259 76.31382233 27.04436768 75.29023743 26.89416504 C70.75376141 26.91878517 68.67579608 29.14418514 65.5655365 32.22245789 C64.87383865 32.94246475 64.18214081 33.66247162 63.46948242 34.40429688 C62.34623062 35.53083427 62.34623062 35.53083427 61.20028687 36.68013 C58.73142114 39.16405722 56.28805399 41.67160685 53.84375 44.1796875 C52.13386494 45.9077086 50.4222774 47.63404662 48.70906067 49.35876465 C44.20487837 53.90100143 39.72124486 58.46297532 35.24243164 63.0302124 C28.06079153 70.34633718 20.84751121 77.63128354 13.63598061 84.91792297 C11.11404797 87.47163376 8.60024724 90.03313513 6.08769226 92.59606934 C4.55362597 94.15336568 3.01943776 95.71054194 1.48510742 97.26757812 C0.78328842 97.98758499 0.08146942 98.70759186 -0.64161682 99.44941711 C-1.28213989 100.09730698 -1.92266296 100.74519684 -2.58259583 101.41271973 C-3.13948499 101.9805442 -3.69637415 102.54836868 -4.27013874 103.13339996 C-5.69921875 104.3359375 -5.69921875 104.3359375 -7.69921875 104.3359375 C-8.02921875 105.3259375 -8.35921875 106.3159375 -8.69921875 107.3359375 C-9.68921875 107.0059375 -10.67921875 106.6759375 -11.69921875 106.3359375 C-11.76861041 92.81059591 -11.82197482 79.28529639 -11.85465527 65.75981331 C-11.87033715 59.47994848 -11.89162145 53.20020508 -11.92553711 46.92041016 C-11.95804055 40.86446813 -11.97605274 34.80864319 -11.98385048 28.7526207 C-11.98941022 26.4376529 -12.00026642 24.12269178 -12.01640892 21.80777359 C-12.03806321 18.57499394 -12.0411907 15.34270332 -12.03979492 12.10986328 C-12.05058075 11.14457703 -12.06136658 10.17929077 -12.07247925 9.18475342 C-12.06629326 7.86802139 -12.06629326 7.86802139 -12.0599823 6.52468872 C-12.06274768 5.75960054 -12.06551306 4.99451237 -12.06836224 4.2062397 C-11.94654489 3.58903997 -11.82472754 2.97184025 -11.69921875 2.3359375 C-7.81080206 -0.25634029 -4.51378921 0.01208702 0 0 Z " fill="#979797" transform="translate(93.69921875,21.6640625)"/>
<path d="M0 0 C6.93 0 13.86 0 21 0 C21.72169875 3.60849373 22.12592103 6.27982245 22.12939453 9.8503418 C22.13254669 10.7844841 22.13569885 11.7186264 22.13894653 12.68107605 C22.1369223 13.67706314 22.13489807 14.67305023 22.1328125 15.69921875 C22.13424759 17.24631279 22.13424759 17.24631279 22.13571167 18.82466125 C22.13639086 20.99907492 22.13455482 23.17349064 22.13037109 25.34790039 C22.12500281 28.68575552 22.13033334 32.02347708 22.13671875 35.36132812 C22.13605824 37.47395863 22.13477765 39.58658905 22.1328125 41.69921875 C22.13483673 42.70127853 22.13686096 43.70333832 22.13894653 44.73576355 C22.13579437 45.66044937 22.13264221 46.58513519 22.12939453 47.5378418 C22.12859894 48.3532695 22.12780334 49.1686972 22.12698364 50.00883484 C22 52 22 52 21 54 C21.66 54 22.32 54 23 54 C23.38478516 53.12214844 23.38478516 53.12214844 23.77734375 52.2265625 C25.10562162 49.80765392 26.56524801 48.26801128 28.5625 46.375 C31.14015389 43.95478041 31.14015389 43.95478041 33 41 C33.66 41 34.32 41 35 41 C35.2475 40.4225 35.495 39.845 35.75 39.25 C37.28594949 36.48529092 38.47673609 34.95542956 41 33 C43.88525005 32.33394097 46.73435877 32.25476767 49.6875 32.1875 C50.8938208 32.1402478 50.8938208 32.1402478 52.12451172 32.09204102 C57.51072302 31.92130128 62.6742372 32.11237287 68 33 C67.56718514 37.36936902 64.65025334 39.65315903 61.625 42.5 C57.71777184 46.20964428 57.71777184 46.20964428 54.2734375 50.34375 C53.85320313 50.8903125 53.43296875 51.436875 53 52 C52.34 52 51.68 52 51 52 C50.7525 52.556875 50.505 53.11375 50.25 53.6875 C48.77075182 56.42410913 47.06532561 58.67650869 45 61 C44.34 61 43.68 61 43 61 C43 61.66 43 62.32 43 63 C42.34 63 41.68 63 41 63 C41.38671875 63.58007812 41.7734375 64.16015625 42.171875 64.7578125 C43.24859805 66.37289708 44.32406565 67.98881917 45.3984375 69.60546875 C46.35213977 71.03136995 47.31307706 72.45253866 48.2890625 73.86328125 C51 77.79316547 51 77.79316547 51 80 C51.66 80 52.32 80 53 80 C54.46226035 81.90821942 55.80254896 83.81021904 57.125 85.8125 C57.9270556 87.00350078 58.73046809 88.1935888 59.53515625 89.3828125 C59.94266113 89.98641602 60.35016602 90.59001953 60.77001953 91.21191406 C63.26323887 94.83643539 65.92471728 98.33836628 68.56640625 101.85546875 C70 104 70 104 70 106 C47.96227044 107.78751862 47.96227044 107.78751862 41.58203125 103.9375 C39.28130958 101.07076008 37.63762354 98.28740765 36 95 C34.7232723 92.9904306 33.43213398 90.98992551 32.125 89 C31.32449219 87.6696875 31.32449219 87.6696875 30.5078125 86.3125 C29.15705564 84.24087291 27.82098655 82.65742488 26 81 C23.69679546 83.19008055 22.14880939 84.96782286 21.68603516 88.17773438 C21.64278595 90.71162915 21.70052584 93.21824532 21.8125 95.75 C21.86454542 97.47384589 21.9129272 99.19780766 21.95703125 100.921875 C21.98772705 101.68081055 22.01842285 102.43974609 22.05004883 103.22167969 C22 105 22 105 21 106 C14.07 106 7.14 106 0 106 C0 71.02 0 36.04 0 0 Z " fill="#010101" transform="translate(732,37)"/>
<path d="M0 0 C4.29 0 8.58 0 13 0 C13 34.98 13 69.96 13 106 C8.71 106 4.42 106 0 106 C-0.33 104.02 -0.66 102.04 -1 100 C-1.350625 100.433125 -1.70125 100.86625 -2.0625 101.3125 C-8.85914406 107.23215773 -17.89193698 107.35263023 -26.421875 107.28125 C-31.54078724 106.87889009 -35.51943205 105.44174836 -40 103 C-40.63421875 102.66097656 -41.2684375 102.32195312 -41.921875 101.97265625 C-48.83865183 97.67262464 -53.50412094 90.47821526 -55.9375 82.8125 C-58.53455118 71.40805785 -58.21280186 58.78102202 -52.5703125 48.359375 C-48.69770916 42.23256972 -48.69770916 42.23256972 -45 41 C-44.67 40.01 -44.34 39.02 -44 38 C-34.74339139 31.81056131 -24.85586168 29.86841426 -14 32 C-8.75395275 33.60073564 -4.91172281 35.08827719 -1 39 C-0.67 26.13 -0.34 13.26 0 0 Z M-37 49 C-37 49.66 -37 50.32 -37 51 C-37.66 51 -38.32 51 -39 51 C-43.70497751 60.32593756 -45.69732415 68.45165159 -43.37109375 78.796875 C-41.21157404 85.18827862 -37.63458704 89.33592072 -32 93 C-25.88115706 95.71948575 -19.19899332 95.61254116 -12.9453125 93.2109375 C-6.27523185 89.68982196 -3.31364073 84.50702832 -0.765625 77.671875 C1.63790927 69.28403091 -0.19420771 61.69406305 -4 54 C-7.32767086 48.73518356 -10.89358396 45.70178808 -17 44 C-25.18876712 43.15247454 -30.15269264 44.43512843 -37 49 Z " fill="#010101" transform="translate(272,37)"/>
<path d="M0 0 C1.093125 0.00257812 2.18625 0.00515625 3.3125 0.0078125 C4.405625 0.00523438 5.49875 0.00265625 6.625 0 C9.3125 0.1328125 9.3125 0.1328125 10.3125 1.1328125 C10.47253488 3.79707935 10.57192889 6.43841678 10.62890625 9.10546875 C10.64968735 9.90311142 10.67046844 10.70075409 10.69187927 11.52256775 C10.75746158 14.08005861 10.81629967 16.6376553 10.875 19.1953125 C10.91817699 20.92514132 10.96179101 22.65495929 11.00585938 24.38476562 C11.11315172 28.6340051 11.21439426 32.8833514 11.3125 37.1328125 C11.97636719 36.78347656 12.64023437 36.43414062 13.32421875 36.07421875 C14.64873047 35.39166016 14.64873047 35.39166016 16 34.6953125 C16.87011719 34.24285156 17.74023438 33.79039063 18.63671875 33.32421875 C27.07516679 29.56695356 34.70780099 31.02895098 43.2109375 33.8046875 C49.04806584 36.30421349 52.08386558 39.92974389 55.125 45.3828125 C57.8374388 53.94840873 58.60505665 62.3254885 58.5078125 71.26953125 C58.5049826 72.27498489 58.50215271 73.28043854 58.49923706 74.31636047 C58.48816487 77.48447271 58.46308557 80.65228771 58.4375 83.8203125 C58.42745341 85.986324 58.41833052 88.15234 58.41015625 90.31835938 C58.38826819 95.58995588 58.35382997 100.86133404 58.3125 106.1328125 C54.0225 106.1328125 49.7325 106.1328125 45.3125 106.1328125 C45.29791748 104.81676025 45.28333496 103.50070801 45.26831055 102.14477539 C45.21003701 97.22995773 45.13280677 92.31558435 45.05004883 87.40112305 C45.01693565 85.28010303 44.988862 83.15899777 44.96606445 81.0378418 C44.93226731 77.97668366 44.87993951 74.91629712 44.82421875 71.85546875 C44.81782883 70.91760025 44.8114389 69.97973175 44.80485535 69.01344299 C44.68668041 63.63875315 43.95654871 59.15191963 42.04841614 54.11521912 C41.3125 52.1328125 41.3125 52.1328125 40.82402039 49.94544983 C40.48619214 47.97507768 40.48619214 47.97507768 38.59765625 47.05078125 C31.59475374 44.74930011 25.33770185 44.47022913 18.4375 47.3203125 C13.78711332 51.28681878 12.01967258 55.18347604 11.3125 61.1328125 C11.12673348 64.60833265 11.05709363 68.08280525 10.99609375 71.5625 C10.97531265 72.55283234 10.95453156 73.54316467 10.93312073 74.56350708 C10.8679968 77.71154168 10.80891371 80.85965617 10.75 84.0078125 C10.70677941 86.1484456 10.66316401 88.28907076 10.61914062 90.4296875 C10.51235372 95.66397926 10.41051988 100.89834962 10.3125 106.1328125 C8.16673363 106.15967188 6.02087355 106.17914338 3.875 106.1953125 C2.68003906 106.20691406 1.48507812 106.21851563 0.25390625 106.23046875 C-2.6875 106.1328125 -2.6875 106.1328125 -3.6875 105.1328125 C-3.78496311 103.7817393 -3.81381579 102.42562877 -3.81448364 101.07104492 C-3.81730347 100.1960434 -3.82012329 99.32104187 -3.82302856 98.41952515 C-3.82100433 97.45221466 -3.8189801 96.48490417 -3.81689453 95.48828125 C-3.81864685 94.47537018 -3.82039917 93.46245911 -3.82220459 92.41885376 C-3.82662522 89.05265619 -3.82368437 85.68651066 -3.8203125 82.3203125 C-3.82098548 79.99243154 -3.82195545 77.66455064 -3.82321167 75.33666992 C-3.82468893 70.45067681 -3.82253318 65.56470194 -3.81787109 60.67871094 C-3.8121738 54.40008594 -3.81545265 48.12150368 -3.82144356 41.84288025 C-3.82504841 37.03381017 -3.82391093 32.22475031 -3.82131577 27.41567993 C-3.82064629 25.09990433 -3.82147564 22.78412781 -3.82379532 20.46835327 C-3.82632061 17.23799159 -3.82248299 14.00770017 -3.81689453 10.77734375 C-3.81891876 9.81003326 -3.82094299 8.84272278 -3.82302856 7.84609985 C-3.82020874 6.97109833 -3.81738892 6.0960968 -3.81448364 5.19458008 C-3.81410662 4.42986893 -3.81372959 3.66515778 -3.81334114 2.87727356 C-3.6022034 -0.04960362 -2.94444824 0.14551052 0 0 Z " fill="#010101" transform="translate(391.6875,36.8671875)"/>
<path d="M0 0 C8.07281107 6.55659782 12.50595476 15.87099965 14.1328125 26.04296875 C14.49019721 29.54065191 14.56277453 32.86085232 14.37109375 36.375 C13.37109375 37.375 13.37109375 37.375 11.20079041 37.49525452 C10.24370682 37.49303391 9.28662323 37.49081329 8.30053711 37.48852539 C7.21949203 37.48844986 6.13844696 37.48837433 5.02464294 37.48829651 C3.26060875 37.48055458 3.26060875 37.48055458 1.4609375 37.47265625 C0.26376602 37.4712413 -0.93340546 37.46982635 -2.16685486 37.46836853 C-6.00839691 37.46274979 -9.84988168 37.45019411 -13.69140625 37.4375 C-16.28841062 37.43248741 -18.8854159 37.42792409 -21.48242188 37.42382812 C-27.86460304 37.41277427 -34.24675055 37.39601792 -40.62890625 37.375 C-40.05333102 39.12800852 -39.4615984 40.87571634 -38.86328125 42.62109375 C-38.53553711 43.5948999 -38.20779297 44.56870605 -37.87011719 45.57202148 C-35.59947709 50.69971994 -31.72347579 53.93956714 -26.68359375 56.27734375 C-21.42015823 57.9075171 -15.95396064 57.61691705 -10.62890625 56.375 C-7.27569174 54.57419961 -5.12631995 52.96868733 -2.69140625 50.0625 C-0.62890625 48.375 -0.62890625 48.375 2.80859375 48.5 C5.83274893 49.24277496 8.54220325 50.08914068 11.37109375 51.375 C10.64242719 57.93299903 6.21260756 61.30234294 1.37109375 65.375 C-7.27710947 70.92375976 -16.64920268 71.3152076 -26.62890625 70.375 C-33.13493788 68.83034217 -38.50717574 65.60599477 -43.62890625 61.375 C-43.62890625 60.715 -43.62890625 60.055 -43.62890625 59.375 C-44.28890625 59.375 -44.94890625 59.375 -45.62890625 59.375 C-50.90057858 52.25078244 -53.90412858 45.1817324 -54.62890625 36.375 C-54.68691406 35.68921875 -54.74492187 35.0034375 -54.8046875 34.296875 C-55.22216466 23.48641387 -52.39611771 13.75339242 -45.19140625 5.625 C-44.34578125 4.8825 -43.50015625 4.14 -42.62890625 3.375 C-41.72140625 2.50875 -40.81390625 1.6425 -39.87890625 0.75 C-28.7770541 -8.37245215 -11.64090008 -7.19556379 0 0 Z M-37.62890625 16.375 C-38.61890625 19.015 -39.60890625 21.655 -40.62890625 24.375 C-27.42890625 24.375 -14.22890625 24.375 -0.62890625 24.375 C-0.62890625 18.11592142 -2.36543653 15.73867948 -6.62890625 11.375 C-11.3973053 7.71718962 -16.22810117 6.72350484 -22.171875 6.98828125 C-28.55714258 7.99327567 -33.62826729 11.34562531 -37.62890625 16.375 Z " fill="#020202" transform="translate(345.62890625,73.625)"/>
<path d="M0 0 C1.65322266 0.01740234 1.65322266 0.01740234 3.33984375 0.03515625 C4.99693359 0.04869141 4.99693359 0.04869141 6.6875 0.0625 C7.54214844 0.07410156 8.39679688 0.08570312 9.27734375 0.09765625 C10.00683084 3.37244911 10.40271322 6.4014155 10.40432739 9.7543335 C10.40714722 10.66007614 10.40996704 11.56581879 10.41287231 12.49900818 C10.41084808 13.47998978 10.40882385 14.46097137 10.40673828 15.47167969 C10.4084906 16.51443558 10.41024292 17.55719147 10.41204834 18.63154602 C10.41644492 22.07339142 10.41353741 25.51518534 10.41015625 28.95703125 C10.41082971 31.34645599 10.4118001 33.73588067 10.41305542 36.12530518 C10.41452925 41.12862807 10.41238716 46.13193309 10.40771484 51.13525391 C10.40200541 57.56397795 10.40530623 63.99266037 10.41128731 70.4213829 C10.41489089 75.35225746 10.41375549 80.28312204 10.41115952 85.21399689 C10.41049032 87.58559423 10.4113184 89.95719246 10.41363907 92.32878876 C10.41616359 95.63295412 10.4123284 98.93705073 10.40673828 102.24121094 C10.40876251 103.23028946 10.41078674 104.21936798 10.41287231 105.23841858 C10.41005249 106.13288193 10.40723267 107.02734528 10.40432739 107.94891357 C10.40395037 108.73055248 10.40357334 109.51219139 10.40318489 110.31751633 C10.27734375 112.09765625 10.27734375 112.09765625 9.27734375 113.09765625 C7.09094922 113.17024571 4.90233986 113.18139408 2.71484375 113.16015625 C1.51730469 113.15113281 0.31976563 113.14210938 -0.9140625 113.1328125 C-2.30431641 113.11541016 -2.30431641 113.11541016 -3.72265625 113.09765625 C-3.74598628 98.5119443 -3.76356952 83.92623522 -3.77446842 69.34050846 C-3.77963116 62.56855204 -3.78667343 55.7966072 -3.7980957 49.0246582 C-3.80910339 42.49541199 -3.8149325 35.96617331 -3.81753349 29.43691826 C-3.81938824 26.93972013 -3.82300979 24.4425227 -3.82838631 21.94532967 C-3.83559309 18.46101556 -3.83664735 14.97675194 -3.83618164 11.49243164 C-3.83977692 10.4487442 -3.84337219 9.40505676 -3.84707642 8.32974243 C-3.84570175 7.38598251 -3.84432709 6.4422226 -3.84291077 5.46986389 C-3.84383256 4.64485917 -3.84475435 3.81985445 -3.84570408 2.96984959 C-3.64566424 -0.07379005 -3.07461244 0.11028022 0 0 Z " fill="#000000" transform="translate(369.72265625,29.90234375)"/>
<path d="M0 0 C4.29 0 8.58 0 13 0 C13 24.09 13 48.18 13 73 C8.71 73 4.42 73 0 73 C0 48.91 0 24.82 0 0 Z " fill="#010101" transform="translate(459,70)"/>
<path d="M0 0 C0 12.87 0 25.74 0 39 C-13.2 39 -26.4 39 -40 39 C-40 38.01 -40 37.02 -40 36 C-39.319375 35.814375 -38.63875 35.62875 -37.9375 35.4375 C-33.79031648 33.40802721 -31.1397934 30.32789163 -28 27 C-27.13375 26.154375 -26.2675 25.30875 -25.375 24.4375 C-22.92635913 22.00153925 -22.92635913 22.00153925 -20.6875 19.125 C-18.07933616 15.92444564 -15.05561103 13.33834099 -11.921875 10.6640625 C-9.49027488 8.55865264 -7.24227757 6.30456306 -5 4 C-1.10810811 0 -1.10810811 0 0 0 Z " fill="#4C4C4C" transform="translate(82,131)"/>
<path d="M0 0 C4.29 0 8.58 0 13 0 C13.02289058 8.9385946 13.04110676 17.8771687 13.05181217 26.81578636 C13.05695865 30.96948743 13.0638997 35.12316685 13.07543945 39.27685547 C13.12849915 58.87844706 12.99361526 78.41721397 12 98 C11.67 98 11.34 98 11 98 C11 66.32 11 34.64 11 2 C8.03 2 5.06 2 2 2 C2 15.86 2 29.72 2 44 C1.34 44 0.68 44 0 44 C0 43.34 0 42.68 0 42 C-0.99 41.67 -1.98 41.34 -3 41 C-3 40.34 -3 39.68 -3 39 C-3.99 39 -4.98 39 -6 39 C-6 38.34 -6 37.68 -6 37 C-2.125 37.875 -2.125 37.875 -1 39 C-0.67 26.13 -0.34 13.26 0 0 Z " fill="#070707" transform="translate(272,37)"/>
<path d="M0 0 C4.91511194 1.34048507 4.91511194 1.34048507 6.4375 3.9375 C6.9375 6.875 6.9375 6.875 6.4375 9.9375 C4.375 12.375 4.375 12.375 1.4375 13.9375 C-2.43566191 13.9375 -4.6138468 13.76757155 -7.5625 11.1875 C-8.87615275 8.23178132 -8.69364585 6.95388894 -7.5625 3.9375 C-5.17318184 0.44541961 -4.29681877 -0.07538279 0 0 Z " fill="#010101" transform="translate(466.5625,44.0625)"/>
<path d="M0 0 C4.29 0 8.58 0 13 0 C12.67 0.99 12.34 1.98 12 3 C8.7 2.67 5.4 2.34 2 2 C2 15.86 2 29.72 2 44 C1.34 44 0.68 44 0 44 C0 43.34 0 42.68 0 42 C-0.99 41.67 -1.98 41.34 -3 41 C-3 40.34 -3 39.68 -3 39 C-3.99 39 -4.98 39 -6 39 C-6 38.34 -6 37.68 -6 37 C-2.125 37.875 -2.125 37.875 -1 39 C-0.67 26.13 -0.34 13.26 0 0 Z " fill="#0F0F0F" transform="translate(272,37)"/>
<path d="M0 0 C0.87395416 0.00718552 1.74790833 0.01437103 2.64834595 0.02177429 C3.5460672 0.02223251 4.44378845 0.02269073 5.36871338 0.02316284 C7.27020588 0.02618724 9.17169586 0.03407914 11.07315063 0.0464325 C13.98111782 0.06462548 16.88876543 0.06694261 19.79678345 0.06669617 C21.64314036 0.07161388 23.48949512 0.0774433 25.33584595 0.08427429 C26.6407045 0.08594353 26.6407045 0.08594353 27.97192383 0.08764648 C28.78601715 0.09402634 29.60011047 0.10040619 30.43887329 0.10697937 C31.15231903 0.11079117 31.86576477 0.11460297 32.60083008 0.11853027 C34.71141582 0.25795781 36.59287568 0.67839168 38.62490845 1.25224304 C38.62490845 1.91224304 38.62490845 2.57224304 38.62490845 3.25224304 C15.35990845 2.75724304 15.35990845 2.75724304 -8.37509155 2.25224304 C-5.6918123 -0.43103621 -3.64627888 0.0138876 0 0 Z " fill="#8F8F8F" transform="translate(91.37509155273438,21.747756958007813)"/>
<path d="M0 0 C3.63 0 7.26 0 11 0 C11 0.33 11 0.66 11 1 C8.03 1 5.06 1 2 1 C2 6.94 2 12.88 2 19 C4.97 19 7.94 19 11 19 C11 19.66 11 20.32 11 21 C7.37 21 3.74 21 0 21 C-0.33 22.32 -0.66 23.64 -1 25 C-1.33 23.02 -1.66 21.04 -2 19 C-1.34 19 -0.68 19 0 19 C0 12.73 0 6.46 0 0 Z " fill="#151515" transform="translate(1188,70)"/>
<path d="M0 0 C4.27077656 -0.05794812 8.54145236 -0.09357874 12.8125 -0.125 C14.02744141 -0.14175781 15.24238281 -0.15851562 16.49414062 -0.17578125 C17.65751953 -0.18222656 18.82089844 -0.18867188 20.01953125 -0.1953125 C21.62985229 -0.21102295 21.62985229 -0.21102295 23.27270508 -0.22705078 C26 0 26 0 29 2 C19.43 2.33 9.86 2.66 0 3 C0 2.01 0 1.02 0 0 Z " fill="#5F5F5F" transform="translate(42,22)"/>
<path d="M0 0 C0.87454834 0.00523682 1.74909668 0.01047363 2.65014648 0.01586914 C3.59438477 0.0190918 4.53862305 0.02231445 5.51147461 0.02563477 C6.50469727 0.03401367 7.49791992 0.04239258 8.52124023 0.05102539 C9.51833008 0.05553711 10.51541992 0.06004883 11.54272461 0.06469727 C14.01478872 0.07652532 16.48673541 0.0930069 18.95874023 0.11352539 C18.62874023 1.10352539 18.29874023 2.09352539 17.95874023 3.11352539 C11.68874023 2.78352539 5.41874023 2.45352539 -1.04125977 2.11352539 C-1.37125977 3.43352539 -1.70125977 4.75352539 -2.04125977 6.11352539 C-2.42344744 4.45737882 -2.75521078 2.78895515 -3.04125977 1.11352539 C-2.04125977 0.11352539 -2.04125977 0.11352539 0 0 Z " fill="#181818" transform="translate(510.041259765625,36.886474609375)"/>
<path d="M0 0 C6.93 0 13.86 0 21 0 C20.67 0.99 20.34 1.98 20 3 C13.07 2.67 6.14 2.34 -1 2 C-0.67 1.34 -0.34 0.68 0 0 Z " fill="#0C0C0C" transform="translate(1054,37)"/>
<path d="M0 0 C0.99 0.33 1.98 0.66 3 1 C2.91621094 1.68964844 2.83242188 2.37929687 2.74609375 3.08984375 C2.07318474 9.2993459 2.0884051 14.82141232 3 21 C1.07463062 19.39441516 0.08925833 18.52230522 -0.34057617 16.00708008 C-0.32486572 15.26868896 -0.30915527 14.53029785 -0.29296875 13.76953125 C-0.28330078 12.96708984 -0.27363281 12.16464844 -0.26367188 11.33789062 C-0.23853516 10.50451172 -0.21339844 9.67113281 -0.1875 8.8125 C-0.17396484 7.96751953 -0.16042969 7.12253906 -0.14648438 6.25195312 C-0.11115799 4.16769616 -0.05735139 2.08376723 0 0 Z " fill="#0B0B0B" transform="translate(676,97)"/>
<path d="M0 0 C3.63 0 7.26 0 11 0 C11.33 0.99 11.66 1.98 12 3 C3.42857143 3.14285714 3.42857143 3.14285714 0 2 C-0.33 2.66 -0.66 3.32 -1 4 C-0.67 2.68 -0.34 1.36 0 0 Z " fill="#0E0E0E" transform="translate(1142,112)"/>
<path d="M0 0 C0.66 0.33 1.32 0.66 2 1 C-1.19990508 3.74277578 -4.00499382 5.6302836 -8 7 C-6.88424427 3.65273281 -6.48655378 3.37920252 -3.5625 1.75 C-2.386875 1.1725 -1.21125 0.595 0 0 Z M-10 7 C-9.34 7.33 -8.68 7.66 -8 8 C-8.33 8.99 -8.66 9.98 -9 11 C-11.0625 11.6875 -11.0625 11.6875 -13 12 C-12.01 10.35 -11.02 8.7 -10 7 Z " fill="#070707" transform="translate(235,71)"/>
<path d="M0 0 C0 0.66 0 1.32 0 2 C-1.74906531 2.64836042 -3.49929219 3.29358784 -5.25 3.9375 C-6.71179687 4.47697266 -6.71179687 4.47697266 -8.203125 5.02734375 C-10.46457161 5.81379655 -12.66796552 6.47251601 -15 7 C-15 6.34 -15 5.68 -15 5 C-13.75264433 4.3490741 -12.50198168 3.70448331 -11.25 3.0625 C-10.55390625 2.70285156 -9.8578125 2.34320313 -9.140625 1.97265625 C-5.97004622 0.53201005 -3.48822516 0 0 0 Z " fill="#0D0D0D" transform="translate(1150,69)"/>
<path d="M0 0 C1.9375 0.8125 1.9375 0.8125 4 2 C4.33 2.99 4.66 3.98 5 5 C5.66 5 6.32 5 7 5 C7.66 6.32 8.32 7.64 9 9 C6.125 8.75 6.125 8.75 3 8 C1.22590481 5.55005903 0.62953607 2.93783498 0 0 Z " fill="#838383" transform="translate(163,40)"/>
<path d="M0 0 C1.32 0.33 2.64 0.66 4 1 C4 1.66 4 2.32 4 3 C4.66 3 5.32 3 6 3 C8.1875 5.8125 8.1875 5.8125 10 9 C9.67 9.99 9.34 10.98 9 12 C8.34 10.68 7.68 9.36 7 8 C6.34 8 5.68 8 5 8 C3.98133771 6.34467377 2.98189187 4.67739862 2 3 C1.34 2.67 0.68 2.34 0 2 C0 1.34 0 0.68 0 0 Z " fill="#0C0C0C" transform="translate(1176,76)"/>
<path d="M0 0 C0.33 0 0.66 0 1 0 C1.3763524 3.9517002 1.09508438 5.82294633 -0.8125 9.375 C-1.534375 10.24125 -2.25625 11.1075 -3 12 C-3.99 12 -4.98 12 -6 12 C-5.38125 10.948125 -4.7625 9.89625 -4.125 8.8125 C-2.48420892 5.94984323 -1.13015547 3.10792754 0 0 Z " fill="#0C0C0C" transform="translate(727,116)"/>
<path d="M0 0 C0.66 0 1.32 0 2 0 C1.67 1.32 1.34 2.64 1 4 C0.34 4 -0.32 4 -1 4 C-1.0825 4.61875 -1.165 5.2375 -1.25 5.875 C-2 8 -2 8 -4.0625 9.25 C-4.701875 9.4975 -5.34125 9.745 -6 10 C-5.49259538 5.60249328 -2.91706686 3.13051078 0 0 Z " fill="#080808" transform="translate(593,78)"/>
<path d="M0 0 C3.77545388 1.09068668 6.47043472 1.9083091 9 5 C8.01 5.33 7.02 5.66 6 6 C2.8125 4.1875 2.8125 4.1875 0 2 C0 1.34 0 0.68 0 0 Z " fill="#919090" transform="translate(148,30)"/>
<path d="M0 0 C0.66 0.33 1.32 0.66 2 1 C-2 7.57142857 -2 7.57142857 -6 9 C-5.52797514 4.75177626 -3.03344482 2.80010291 0 0 Z " fill="#0A0A0A" transform="translate(773,70)"/>
<path d="M0 0 C-2.8125 2.0625 -2.8125 2.0625 -6 4 C-6.99 3.67 -7.98 3.34 -9 3 C-8.67 2.01 -8.34 1.02 -8 0 C-5.04215769 -1.22393475 -3.00272755 -0.96516243 0 0 Z " fill="#0E0E0E" transform="translate(1040,72)"/>
<path d="M0 0 C2.05078125 0.03255208 4.1015625 0.06510417 6.15234375 0.09765625 C5.82234375 0.75765625 5.49234375 1.41765625 5.15234375 2.09765625 C3.17234375 2.09765625 1.19234375 2.09765625 -0.84765625 2.09765625 C-1.17765625 3.41765625 -1.50765625 4.73765625 -1.84765625 6.09765625 C-2.22984392 4.44150968 -2.56160727 2.77308601 -2.84765625 1.09765625 C-1.84765625 0.09765625 -1.84765625 0.09765625 0 0 Z " fill="#121111" transform="translate(509.84765625,36.90234375)"/>
<path d="M0 0 C3.66871014 2.44580676 5.06212134 5.12424268 7 9 C5.1875 8.8125 5.1875 8.8125 3 8 C0.85802506 5.09303401 0 3.64478912 0 0 Z " fill="#070707" transform="translate(1124,123)"/>
<path d="M0 0 C-5.41538462 4.06153846 -5.41538462 4.06153846 -8.375 3.75 C-8.91125 3.5025 -9.4475 3.255 -10 3 C-3.375 -1.125 -3.375 -1.125 0 0 Z " fill="#0A0A0A" transform="translate(714,138)"/>
<path d="M0 0 C3.53586014 3.17320782 5.58578031 5.16743695 6 10 C3.66475218 7.74259377 1.81294927 5.7194239 0 3 C0 2.01 0 1.02 0 0 Z " fill="#090909" transform="translate(770,131)"/>
<path d="M0 0 C0.556875 0.226875 1.11375 0.45375 1.6875 0.6875 C-5.0625 4.6875 -5.0625 4.6875 -7.3125 4.6875 C-7.3125 4.0275 -7.3125 3.3675 -7.3125 2.6875 C-3.15982824 -0.42700382 -3.15982824 -0.42700382 0 0 Z " fill="#0D0D0D" transform="translate(410.3125,71.3125)"/>
<path d="M0 0 C1.32 0.33 2.64 0.66 4 1 C0.25 4 0.25 4 -2 4 C-2 4.66 -2 5.32 -2 6 C-2.66 6 -3.32 6 -4 6 C-4 4.68 -4 3.36 -4 2 C-3.01 2 -2.02 2 -1 2 C-0.67 1.34 -0.34 0.68 0 0 Z " fill="#101010" transform="translate(859,71)"/>
<path d="M0 0 C1.32 0 2.64 0 4 0 C4.66 1.32 5.32 2.64 6 4 C4.68 4 3.36 4 2 4 C1.34 2.68 0.68 1.36 0 0 Z " fill="#1E1E1E" transform="translate(169,49)"/>
<path d="M0 0 C0.99 0.33 1.98 0.66 3 1 C2.67 4.63 2.34 8.26 2 12 C1.67 12 1.34 12 1 12 C0.67 8.04 0.34 4.08 0 0 Z " fill="#080808" transform="translate(751,37)"/>
<path d="M0 0 C0.66 0.33 1.32 0.66 2 1 C-0.46153846 5.8 -0.46153846 5.8 -3.1875 6.8125 C-3.785625 6.874375 -4.38375 6.93625 -5 7 C-3.70700306 4.11562221 -2.34058637 2.12780579 0 0 Z " fill="#0A0A0A" transform="translate(1092,73)"/>
</svg>
